<svg xmlns="http://www.w3.org/2000/svg" xmlns:xlink="http://www.w3.org/1999/xlink" version="1.1"
    id="Layer_1" x="0px" y="0px" viewBox="0 0 170 62" style="enable-background:new 0 0 170 62;"
    xml:space="preserve">
    <style type="text/css">
        .st0{fill-rule:evenodd;clip-rule:evenodd;fill:#0047BA;}
        .st1{fill-rule:evenodd;clip-rule:evenodd;}
    </style>
    <path class="st0" d="M107.6,16.7c3-1.8,5.5-2.5,8.8-2.2c-8.3-6.2-11.5,3.8-20.2,1.2c-3.3-1-5.2-3.8-9.2-3.2  c-5.2,0.7-8.9,6.5-17.1,1.8c4.6,6.5,10.5,4.7,14.6,2.3c2-1.2,6.2-3.2,8.5-1.9c0.7,0.4,1.1,0.9,1.6,1.4c0.5,0.5,1,1,1.5,1.3h0  c0.4,0.3,0.7,0.5,1.1,0.7c-4.1,1.6-7.9,5.2-14.8,1.2c4.6,6.5,10.5,4.7,14.6,2.3c2-1.2,6.2-3.2,8.5-1.9c0.7,0.4,1.1,0.9,1.6,1.4  c0.5,0.5,1,1,1.5,1.3h0c3.7,2.6,8.1,1.4,11.7-0.7c3-1.8,5.5-2.5,8.8-2.2c-8.3-6.2-11.5,3.8-20.2,1.2c-1.7-0.5-3.1-1.5-4.5-2.3  C105.3,17.9,106.5,17.3,107.6,16.7"/>
    <path class="st1" d="M18,40.9h1.9c-0.2,1.7-1,3.1-2.3,4.2c-1.3,1.1-2.9,1.6-4.8,1.6c-2.3,0-4.2-0.7-5.6-2.2C5.8,43.1,5,41.2,5,38.9  c0-2.3,0.7-4.2,2.1-5.6c1.4-1.4,3.3-2.1,5.6-2.1c1.8,0,3.4,0.5,4.7,1.5c1.3,1,2.1,2.3,2.3,3.8h-2c-0.3-1.1-1-2-1.8-2.6  c-0.9-0.6-2-0.9-3.2-0.9c-1.7,0-3.1,0.5-4.2,1.6C7.5,35.7,7,37.1,7,38.9c0,1.8,0.5,3.2,1.6,4.3c1,1.1,2.5,1.6,4.2,1.6  c1.3,0,2.4-0.4,3.4-1.1C17.1,43.1,17.7,42.1,18,40.9 M22.3,46.2V26.4h1.8v7.9c0.7-1,1.6-1.7,2.6-2.2c1-0.5,2.2-0.8,3.5-0.8  c1.9,0,3.3,0.4,4.2,1.3c0.9,0.9,1.4,2.2,1.4,4.1v9.4h-1.9V38c0-1.8-0.3-3.1-0.9-3.8c-0.6-0.7-1.6-1.1-3.1-1.1c-1.7,0-3,0.5-4.1,1.4  c-1.1,0.9-1.6,2.1-1.6,3.5v8.3H22.3z M53.9,44.4l0,1.6c-0.3,0.1-0.6,0.2-0.8,0.2c-0.3,0-0.5,0.1-0.8,0.1c-0.6,0-1.1-0.2-1.4-0.5  c-0.3-0.3-0.5-0.9-0.5-1.8c-0.8,0.9-1.7,1.6-2.7,2c-1,0.4-2.2,0.6-3.6,0.6c-1.8,0-3.1-0.4-4.1-1.1c-1-0.8-1.4-1.8-1.4-3.2  c0-0.6,0.1-1.2,0.4-1.7c0.3-0.5,0.6-1,1.1-1.3c0.4-0.3,0.9-0.5,1.6-0.7c0.7-0.2,1.9-0.4,3.5-0.6c0.4,0,0.9-0.1,1.5-0.2  c2.4-0.3,3.5-1,3.5-2.1c0-0.8-0.3-1.4-1-1.8c-0.7-0.4-1.7-0.6-3-0.6c-1.7,0-2.9,0.3-3.8,0.8c-0.9,0.6-1.3,1.4-1.4,2.5h-1.9  c0.1-1.7,0.7-3,1.9-3.8c1.1-0.8,2.8-1.3,4.9-1.3c1.4,0,2.5,0.1,3.3,0.4c0.8,0.3,1.5,0.7,2,1.3c0.3,0.4,0.5,0.8,0.6,1.3  c0.1,0.5,0.2,1.2,0.2,2.2V43c0,0.6,0.1,1,0.2,1.2c0.1,0.2,0.3,0.2,0.6,0.2c0.1,0,0.3,0,0.4,0C53.6,44.4,53.7,44.4,53.9,44.4z   M50.3,38.3c-0.3,0.2-0.9,0.4-1.6,0.5c-0.7,0.2-1.8,0.4-3.4,0.6c-2.1,0.3-3.4,0.7-4,1.1c-0.6,0.4-0.8,0.9-0.8,1.7  c0,0.8,0.3,1.4,1,1.9c0.7,0.5,1.6,0.7,2.7,0.7c1.8,0,3.2-0.4,4.4-1.3c1.1-0.8,1.7-1.9,1.7-3.3V38.3z M58.4,46.2h-1.9V31.7h1.9v2.4  c0.4-0.9,1-1.6,1.8-2.2c0.8-0.5,1.6-0.8,2.6-0.8c0.3,0,0.6,0,0.9,0.1c0.3,0.1,0.6,0.2,1,0.3v1.8c-0.3-0.1-0.6-0.2-0.9-0.2  c-0.3,0-0.5-0.1-0.8-0.1c-1.1,0-2.1,0.3-2.8,0.9c-0.8,0.6-1.3,1.5-1.7,2.8V46.2z M66.5,46.2V26.4h1.9v19.8H66.5z M73.5,37.8h11.2  c-0.1-1.4-0.7-2.6-1.7-3.5c-1-0.9-2.3-1.3-3.9-1.3c-1.6,0-2.9,0.4-3.9,1.3C74.2,35.2,73.6,36.3,73.5,37.8z M86.3,41.6  c-0.4,1.6-1.2,2.8-2.5,3.8c-1.3,0.9-2.8,1.4-4.7,1.4c-2.3,0-4.2-0.7-5.6-2.1c-1.4-1.4-2.1-3.3-2.1-5.6c0-2.3,0.7-4.2,2.1-5.6  c1.4-1.4,3.3-2.1,5.6-2.1c2.3,0,4.2,0.7,5.6,2.1c1.4,1.4,2.1,3.3,2.1,5.6v0.4H73.4c0.1,1.8,0.7,3.1,1.6,4.1c1,1,2.3,1.4,4,1.4  c1.2,0,2.3-0.3,3.2-0.9c0.9-0.6,1.5-1.4,1.9-2.4H86.3z M88.3,41.6h1.9c0.1,1.1,0.6,1.9,1.5,2.4c0.8,0.5,2,0.8,3.6,0.8  c1.6,0,2.9-0.2,3.7-0.7c0.9-0.5,1.3-1.1,1.3-2c0-0.6-0.2-1.1-0.6-1.4c-0.4-0.3-1.1-0.6-2.1-0.7l-4.2-0.6c-1.7-0.2-2.8-0.7-3.6-1.3  c-0.7-0.6-1.1-1.5-1.1-2.7c0-1.3,0.6-2.3,1.7-3.1c1.1-0.8,2.7-1.1,4.7-1.1c2,0,3.6,0.4,4.8,1.2c1.2,0.8,1.7,2,1.8,3.5h-1.9  c-0.1-1-0.6-1.7-1.4-2.2c-0.8-0.5-2-0.7-3.5-0.7c-1.3,0-2.4,0.2-3.1,0.6c-0.7,0.4-1.1,1-1.1,1.8c0,0.6,0.2,1.1,0.7,1.4  c0.5,0.3,1.3,0.6,2.6,0.8l3.7,0.6c1.6,0.2,2.8,0.7,3.5,1.3c0.7,0.6,1.1,1.5,1.1,2.6c0,1.5-0.6,2.7-1.8,3.5c-1.2,0.8-3,1.2-5.3,1.2  c-2.1,0-3.7-0.4-4.8-1.3C89.1,44.5,88.5,43.2,88.3,41.6z M112.5,46.2h-1.9V31.7h1.9v2.4c0.4-0.9,1-1.6,1.8-2.2  c0.8-0.5,1.6-0.8,2.6-0.8c0.3,0,0.6,0,0.9,0.1c0.3,0.1,0.6,0.2,1,0.3v1.8c-0.3-0.1-0.6-0.2-0.9-0.2c-0.3,0-0.5-0.1-0.8-0.1  c-1.1,0-2.1,0.3-2.8,0.9c-0.8,0.6-1.3,1.5-1.7,2.8V46.2z M120.6,28.7v-2.2h1.9v2.2H120.6z M120.6,46.2V31.7h1.9v14.5H120.6z   M130.6,46.2L124,31.7h2.2l5.4,12.6l5.5-12.6h2.1l-6.6,14.5H130.6z M141.7,37.7h11.2c-0.1-1.4-0.7-2.6-1.7-3.5  c-1-0.9-2.3-1.3-3.9-1.3c-1.6,0-2.9,0.4-3.9,1.3C142.4,35.1,141.8,36.2,141.7,37.7z M154.5,41.5c-0.4,1.6-1.2,2.8-2.5,3.8  c-1.3,0.9-2.8,1.4-4.7,1.4c-2.3,0-4.2-0.7-5.6-2.1c-1.4-1.4-2.1-3.3-2.1-5.6c0-2.3,0.7-4.2,2.1-5.6c1.4-1.4,3.3-2.1,5.6-2.1  c2.3,0,4.2,0.7,5.6,2.1c1.4,1.4,2.1,3.3,2.1,5.6v0.4h-13.4c0.1,1.8,0.7,3.1,1.6,4.1c1,1,2.3,1.4,4,1.4c1.2,0,2.3-0.3,3.2-0.9  c0.9-0.6,1.5-1.4,1.9-2.4H154.5z M159.5,46.1h-1.9V31.6h1.9V34c0.4-0.9,1-1.6,1.8-2.2c0.8-0.5,1.6-0.8,2.6-0.8c0.3,0,0.6,0,0.9,0.1  c0.3,0.1,0.6,0.2,1,0.3v1.8c-0.3-0.1-0.6-0.2-0.9-0.2c-0.3,0-0.5-0.1-0.8-0.1c-1.1,0-2.1,0.3-2.8,0.9c-0.8,0.6-1.3,1.5-1.7,2.8V46.1  z"/>
    </svg>